<?xml version="1.0" encoding="utf-8"?>
<svg width="800px" height="800px" viewBox="0 0 24 24" xmlns="http://www.w3.org/2000/svg">
    <rect width="24" height="24" rx="3" fill="#f6f8fa"/>
    <g transform="translate(1, 1)">
        <path d="M11.025 15H1.707l5.963-5.963L10 10.83l2.33-1.794 1.603 1.603a5.463 5.463 0 0 1 1.004-.41l-1.808-1.808L19 3.9v6.72a5.514 5.514 0 0 1 1 .64V3.5A1.504 1.504 0 0 0 18.5 2h-17A1.504 1.504 0 0 0 0 3.5v11A1.5 1.5 0 0 0 1.5 16h9.525c-.015-.165-.025-.331-.025-.5s.01-.335.025-.5zM1 14.293V3.901l5.871 4.52zM18.5 3c.009 0 .016.005.025.005L10 9.57 1.475 3.005c.009 0 .016-.005.025-.005zm-2 8a4.505 4.505 0 0 0-4.5 4.5 4.403 4.403 0 0 0 .05.5 4.49 4.49 0 0 0 4.45 4h.5v-1h-.5a3.495 3.495 0 0 1-3.45-3 3.455 3.455 0 0 1-.05-.5 3.498 3.498 0 0 1 5.947-2.5H18v.513A2.476 2.476 0 0 0 16.5 13a2.5 2.5 0 1 0 1.733 4.295A1.497 1.497 0 0 0 21 16.5v-1a4.555 4.555 0 0 0-4.5-4.5zm0 6a1.498 1.498 0 0 1-1.408-1 1.483 1.483 0 0 1-.092-.5 1.5 1.5 0 0 1 3 0 1.483 1.483 0 0 1-.092.5 1.498 1.498 0 0 1-1.408 1zm3.5-.5a.5.5 0 0 1-1 0v-3.447a3.639 3.639 0 0 1 1 2.447z" fill="#000000"/>
    </g>
</svg>
