<?xml version="1.0" encoding="UTF-8" standalone="no"?>
<svg width="800px" height="800px" viewBox="0 0 24 24" version="1.1" xmlns="http://www.w3.org/2000/svg" xmlns:xlink="http://www.w3.org/1999/xlink">
    <title>github</title>
    <rect width="24" height="24" rx="3" fill="#f6f8fa"/>
    <g transform="translate(1, 1)">
        <path d="M11,1 C5.477,1 1,5.477 1,11 C1,15.418 3.865,19.166 7.839,20.489 C8.339,20.579 8.521,20.269 8.521,20.006 C8.521,19.771 8.513,19.146 8.508,18.311 C5.726,18.911 5.139,16.776 5.139,16.776 C4.685,15.622 4.029,15.314 4.029,15.314 C3.121,14.696 4.098,14.708 4.098,14.708 C5.101,14.78 5.629,15.738 5.629,15.738 C6.521,17.262 7.97,16.822 8.539,16.569 C8.631,15.921 8.889,15.481 9.175,15.234 C6.955,14.983 4.62,14.109 4.62,10.315 C4.62,9.22 5.009,8.323 5.649,7.621 C5.546,7.37 5.203,6.337 5.746,4.949 C5.746,4.949 6.586,4.683 8.496,5.984 C9.295,5.762 10.15,5.651 11,5.647 C11.85,5.651 12.705,5.762 13.505,5.984 C15.413,4.683 16.252,4.949 16.252,4.949 C16.797,6.337 16.454,7.37 16.351,7.621 C16.993,8.323 17.38,9.22 17.38,10.315 C17.38,14.119 15.04,14.98 12.813,15.224 C13.172,15.535 13.491,16.146 13.491,17.083 C13.491,18.426 13.479,19.507 13.479,20.006 C13.479,20.271 13.663,20.584 14.161,20.488 C18.138,19.163 21,15.416 21,11 C21,5.477 16.523,1 11,1" fill="#000000"></path>
    </g>
</svg>
