<?xml version="1.0" encoding="UTF-8" standalone="no"?>
<svg width="800px" height="800px" viewBox="0 0 24 24" version="1.1" xmlns="http://www.w3.org/2000/svg" xmlns:xlink="http://www.w3.org/1999/xlink">
    <title>linkedin</title>
    <g id="Page-1" stroke="none" stroke-width="1" fill="none" fill-rule="evenodd">
        <g id="linkedin" fill="#0077B7">
            <path d="M20.447,2 L3.553,2 C2.697,2 2,2.697 2,3.553 L2,20.447 C2,21.303 2.697,22 3.553,22 L20.447,22 C21.303,22 22,21.303 22,20.447 L22,3.553 C22,2.697 21.303,2 20.447,2 Z M8.285,19 L5.154,19 L5.154,9.24 L8.285,9.24 L8.285,19 Z M6.72,7.965 C5.77,7.965 5,7.19 5,6.24 C5,5.29 5.77,4.515 6.72,4.515 C7.67,4.515 8.44,5.29 8.44,6.24 C8.44,7.19 7.67,7.965 6.72,7.965 Z M19,19 L15.872,19 L15.872,14.24 C15.872,13.06 15.849,11.515 14.173,11.515 C12.474,11.515 12.218,12.817 12.218,14.153 L12.218,19 L9.09,19 L9.09,9.24 L12.089,9.24 L12.089,10.633 L12.132,10.633 C12.555,9.835 13.633,8.995 15.267,8.995 C18.435,8.995 19,11.085 19,13.833 L19,19 Z"></path>
        </g>
    </g>
</svg>
